<svg width="24" height="16" viewBox="0 0 24 16" fill="none" xmlns="http://www.w3.org/2000/svg">
<g id="americanexpress-solid">
<path id="Shape" fill-rule="evenodd" clip-rule="evenodd" d="M1.13636 4H1.90909L3 6.94737H2.31818L2.09091 6.36842H0.909091L0.681818 7H0L1.13636 4ZM1.31818 5.10526L1.09091 5.78947H1.90909L1.68182 5.10526L1.5 4.63158L1.31818 5.10526Z" fill="#808080"/>
<path id="Path" d="M6.25714 4.58929L6.08571 5.01786L5.34286 7H4.65714L3.91429 5.01786L3.74286 4.58929V7H3V4H4.25714L4.88571 5.76786L5 6.08929L5.11429 5.76786L5.74286 4H7V7H6.25714V4.58929Z" fill="#808080"/>
<path id="Path_2" d="M8.57778 4.64286V5.17857H9.95556V5.82143H8.57778V6.35714H10V7H8V4H10V4.64286H8.57778Z" fill="#808080"/>
<path id="Shape_2" fill-rule="evenodd" clip-rule="evenodd" d="M12.8333 4.97664C12.8889 5.45586 12.5 5.88183 12 5.93508L13 7H12.0556L11.1111 5.93508H10.7778V7H10V4.01821H11.7222C12.2778 3.91172 12.7778 4.28444 12.8333 4.81691V4.97664ZM11.6667 4.65717H10.7778H10.7222V5.29612H11.6111C11.7778 5.29612 11.9444 5.18963 12 5.02989V4.97664C12 4.87015 12 4.81691 11.9444 4.76366L11.8889 4.71041C11.8611 4.71041 11.8472 4.6971 11.8333 4.68379C11.8194 4.67048 11.8056 4.65717 11.7778 4.65717H11.7222H11.6667Z" fill="#808080"/>
<rect id="Rectangle" x="13" y="4" width="1" height="3" fill="#808080"/>
<path id="Path_3" d="M15.257 4.05257H16V4.68345H15.3034C14.9319 4.68345 14.6533 4.99889 14.6069 5.36691C14.6069 5.41948 14.6069 5.47205 14.6069 5.47205V5.52463C14.5604 5.94521 14.7926 6.31323 15.1641 6.3658C15.2106 6.3658 15.257 6.3658 15.257 6.3658H15.4428L15.257 6.99668H15.2106C14.5604 7.04925 14.0032 6.47095 14.0032 5.73492C14.0032 5.68235 14.0032 5.5772 14.0032 5.52463V5.47205C13.9568 4.73603 14.4211 4.10515 15.0713 4C15.1177 4.05257 15.2106 4.05257 15.257 4.05257Z" fill="#808080"/>
<path id="Shape_3" fill-rule="evenodd" clip-rule="evenodd" d="M17.0746 4H17.8806L19 6.94737H18.3284L18.1045 6.36842H16.8955L16.6716 7H16L17.0746 4ZM17.2985 5.10526L17.0746 5.78947H17.8806L17.6119 5.10526L17.4776 4.63158L17.2985 5.10526Z" fill="#808080"/>
<path id="Path_4" d="M19.7222 7H19V4H19.8889L21 5.57895L21.2222 5.89474V4H22V6.94737H21.0556L19.9444 5.31579L19.7222 5V7Z" fill="#808080"/>
<path id="Path_5" d="M5.57778 9.65455V10.2H7V10.8H5.57778V11.3455H7V12H5V9H7V9.65455H5.57778Z" fill="#808080"/>
<path id="Path_6" d="M7.04839 13L8.1129 11.5L7 10H7.82258L8.5 10.9107L9.17742 10H9.95161L8.8871 11.5L10 13H9.17742L8.5 12.0357L7.82258 13H7.04839Z" fill="#808080"/>
<path id="Shape_4" fill-rule="evenodd" clip-rule="evenodd" d="M11.8235 9.00508C12.4118 8.9516 12.9412 9.32597 13 9.86077C13 9.91425 13 9.96773 12.9412 9.96773C12.9412 10.5025 12.4706 10.9839 11.8824 10.9839H11.7647H10.7647V12H10V9.00508H11.8235ZM10.8235 10.3421H11.7647C12 10.3421 12.1765 10.1817 12.1765 9.96773C12.1765 9.75381 12 9.59337 11.7647 9.59337H10.8235V10.3421Z" fill="#808080"/>
<path id="Shape_5" fill-rule="evenodd" clip-rule="evenodd" d="M15.8868 9.86077C15.9434 10.3956 15.5472 10.8769 14.9811 10.9304L16 12H15.0377L14.0755 10.9304H13.7358V12H13V9.00508H14.7547C15.3208 8.9516 15.8302 9.32597 15.8868 9.86077ZM13.7925 10.3421H14.6981C14.8679 10.3956 15.0377 10.2351 15.0943 10.0747V10.0212C15.0943 9.86077 14.9245 9.70033 14.7547 9.70033H14.6981H13.7925V10.3421Z" fill="#808080"/>
<path id="Path_7" d="M17.6087 9.65455V10.2H18.9565V10.8H17.6087V11.3455H19V12H17V9H19L18.9565 9.65455H17.6087Z" fill="#808080"/>
<path id="Path_8" d="M21.22 11.1964C21.28 11.0357 21.16 10.9286 20.98 10.875C20.92 10.875 20.92 10.875 20.86 10.875H20.08C19.54 10.9286 19.12 10.6071 19 10.125C19 10.0714 19 10.0179 19 9.96429C19 9.42857 19.48 9 20.02 9C20.08 9 20.14 9 20.14 9H21.88L21.58 9.64286H20.14C19.96 9.58929 19.84 9.69643 19.78 9.85714C19.72 10.0179 19.84 10.125 20.02 10.1786C20.08 10.1786 20.08 10.1786 20.14 10.1786H20.92C21.4 10.125 21.88 10.4464 22 10.875C22 10.9286 22 10.9821 22 11.0357C22 11.5714 21.58 12 20.98 12C20.92 12 20.92 12 20.86 12H19.12V11.3571H20.86C21.04 11.4643 21.16 11.3571 21.22 11.1964Z" fill="#808080"/>
<path id="Path_9" d="M24 8.95H9.45L9 9.55L8.6 8.95H4.45V13.05H8.6L9.05 12.45L9.45 13.05H11.95V12.15H12.25C12.5 12.15 12.75 12.1 13 12.05V13.1H14.7V12.35L15.3 13.1H23.1C23.4 13.1 23.75 13 24 12.85V11.9C23.85 12.3 23.5 12.5 23.1 12.45H21.65V11.85H23.1C23.25 11.9 23.35 11.8 23.4 11.65C23.45 11.5 23.35 11.4 23.2 11.35C23.15 11.35 23.15 11.35 23.1 11.35H22.45C22 11.4 21.65 11.1 21.55 10.65C21.55 10.6 21.55 10.55 21.55 10.5C21.55 10 21.9 9.6 22.4 9.6C22.45 9.6 22.5 9.6 22.5 9.6H24V14C24 15.1 23.1 16 22 16H2C0.9 16 0 15.1 0 14V7.7H1.15L1.4 7.1H1.95L2.2 7.7H11.35V6.95L11.95 7.7H14.35V7.35C14.7 7.6 15.1 7.75 15.55 7.7H17L17.25 7.1H17.8L18.05 7.7H20.5V6.9L21 7.7H22.7V3.6H20.9V4.45L20.35 3.6H18.8V4.65L18.3 3.6H15.65C15.2 3.6 14.75 3.75 14.4 4V3.6H5.5L5.2 4.5L4.9 3.6H2.9V4.65L2.45 3.6H0.8L0 5.5V2C0 0.9 0.9 0 2 0H22C23.1 0 24 0.9 24 2V8.95Z" fill="#808080"/>
<g id="amex">
<path id="Shape_6" fill-rule="evenodd" clip-rule="evenodd" d="M11.2444 5.95001C11.3999 6.00001 11.5555 5.90001 11.6073 5.70001C11.5555 5.85001 11.3999 6.00001 11.2444 5.95001Z" fill="#F4F4F4"/>
<path id="Path_10" d="M23.7408 10.7H22.4445C22.2889 10.65 22.1852 10.75 22.1334 10.9C22.0815 11.05 22.1852 11.15 22.3408 11.2C22.3926 11.2 22.3926 11.2 22.4445 11.2H23.1185C23.4815 11.15 23.7926 11.35 23.9482 11.65V10.1L23.7408 10.7Z" fill="#F4F4F4"/>
</g>
</g>
</svg>
