<svg width="24" height="16" viewBox="0 0 24 16" fill="none" xmlns="http://www.w3.org/2000/svg">
<g id="discover-solid">
<path id="Path" d="M3.64988 7.72998C3.41349 7.93685 3.10276 8.03802 2.78988 8.00998H2.62988V5.86998H2.78988C3.09973 5.83874 3.40924 5.93232 3.64988 6.12998C3.87237 6.33578 3.99613 6.62697 3.98988 6.92998C3.99485 7.23274 3.87131 7.52344 3.64988 7.72998Z" fill="#808080"/>
<path id="Shape" fill-rule="evenodd" clip-rule="evenodd" d="M22 0.0100098H2C0.89543 0.0100098 0 0.90544 0 2.01001V14.01C0.00035827 14.8521 0.528105 15.6037 1.32 15.89C2.98 15.65 4.62 15.35 6.21 15.01C6.49984 14.9548 6.78491 14.8901 7.0685 14.8257L7.06855 14.8257L7.06883 14.8256C7.19608 14.7967 7.32304 14.7679 7.45 14.74C14.06 13.23 19.78 11.01 23 8.83001C23.36 8.58001 23.7 8.33001 24 8.08001V2.01001C24 0.90544 23.1046 0.0100098 22 0.0100098ZM7.29 15.8L7.67 15.72C14.23 14.22 20.17 11.95 23.57 9.65001L24 9.34001V13.99C24 15.0946 23.1046 15.99 22 15.99H6.4C6.7 15.94 7 15.87 7.29 15.8ZM2.91 8.53001C3.32443 8.55445 3.73348 8.4264 4.06 8.17001C4.59542 7.7215 4.78059 6.97893 4.51844 6.33154C4.25629 5.68415 3.60663 5.27963 2.91 5.33001H2V8.53001H2.91ZM5.55 8.54001H4.93V5.33001H5.55V8.54001ZM5.79 8.01001C6.0245 8.39578 6.4488 8.62513 6.9 8.61001C7.20815 8.67707 7.52988 8.59485 7.76806 8.38816C8.00625 8.18147 8.13298 7.87453 8.11 7.56001C8.11 7.05001 7.9 6.82001 7.18 6.56001C6.81 6.42001 6.7 6.35001 6.7 6.15001C6.7 5.95001 6.89 5.80001 7.16 5.80001C7.36183 5.79998 7.55146 5.89665 7.67 6.06001L8 5.63001C7.72752 5.38228 7.36786 5.2528 7 5.27001C6.47751 5.26834 6.0418 5.66919 6 6.19001C6 6.63001 6.15 6.86001 6.74 7.04001C6.8619 7.08389 6.95289 7.12778 7.02225 7.16123C7.09514 7.19638 7.14413 7.22001 7.18 7.22001C7.29275 7.29641 7.3602 7.42381 7.36 7.56001C7.36028 7.68474 7.30877 7.80399 7.21777 7.8893C7.12678 7.97461 7.00445 8.01833 6.88 8.01001C6.59448 8.02208 6.32692 7.87085 6.19 7.62001L5.79 8.01001ZM10.68 6.19001C10.4874 5.95875 10.2009 5.82653 9.9 5.83001C9.61354 5.83251 9.34029 5.95084 9.14249 6.15807C8.94469 6.36529 8.83918 6.64374 8.85 6.93001C8.82543 7.22329 8.9313 7.5125 9.1394 7.72061C9.34751 7.92871 9.63672 8.03458 9.93 8.01001C10.2188 8.00713 10.4923 7.87951 10.68 7.66001V8.40001C10.4382 8.52293 10.1712 8.58797 9.9 8.59001C9.45457 8.59806 9.02459 8.42673 8.70676 8.11454C8.38893 7.80235 8.20993 7.37552 8.21 6.93001C8.21264 6.48179 8.39324 6.05298 8.71205 5.73792C9.03087 5.42286 9.46178 5.24735 9.91 5.25001C10.1795 5.24991 10.4446 5.31876 10.68 5.45001V6.19001ZM10.88 6.93001C10.88 7.87442 11.6456 8.64001 12.59 8.64001C13.5321 8.63455 14.2945 7.87215 14.3 6.93001C14.3 5.9856 13.5344 5.22001 12.59 5.22001C11.6456 5.22001 10.88 5.9856 10.88 6.93001ZM15.81 8.64001H15.47L14.11 5.33001H14.79L15.65 7.48001L16.52 5.33001H17.19L15.81 8.64001ZM18.1 5.89001H19.25V5.33001H17.48V8.56001H19.25V8.01001H18.1V7.15001H19.21V6.60001H18.1V5.89001ZM21.25 8.55001L20.38 7.26001H20.3V8.53001H19.67V5.33001H20.59C21.32 5.33001 21.73 5.67001 21.73 6.27001C21.7616 6.71943 21.4448 7.11862 21 7.19001L22 8.53001L21.25 8.55001ZM21.76 5.44001C21.76 5.57256 21.8675 5.68001 22 5.68001C22.0637 5.68001 22.1247 5.65472 22.1697 5.60972C22.2147 5.56471 22.24 5.50366 22.24 5.44001C22.24 5.30746 22.1325 5.20001 22 5.20001C21.8675 5.20001 21.76 5.30746 21.76 5.44001ZM22 5.24001C21.9478 5.23994 21.8979 5.26132 21.862 5.29915L21.8612 5.30001H21.84V5.32713C21.8186 5.36042 21.8079 5.39987 21.81 5.44001C21.8079 5.48112 21.8185 5.52157 21.84 5.55603V5.59001H21.8667C21.9019 5.62605 21.9495 5.64755 22 5.65001C22.0504 5.6516 22.0985 5.62936 22.13 5.59001H22L21.91 5.47001V5.59001H21.8667L21.8614 5.58443C21.8534 5.57556 21.8462 5.56605 21.84 5.55603V5.32713C21.8462 5.31753 21.8533 5.30845 21.8612 5.30001H22C22.07 5.30001 22.11 5.30001 22.11 5.39001C22.1104 5.42508 22.0847 5.455 22.05 5.46001L22.14 5.59001C22.1775 5.54891 22.1988 5.49562 22.2 5.44001C22.2029 5.38612 22.1828 5.33354 22.1446 5.29538C22.1065 5.25722 22.0539 5.23709 22 5.24001ZM20.3 5.83001H20.49C20.87 5.83001 21.08 6.02001 21.08 6.34001C21.08 6.66001 20.87 6.83001 20.48 6.83001H20.3V5.83001Z" fill="#808080"/>
</g>
</svg>
