<svg width="24" height="16" viewBox="0 0 24 16" fill="none" xmlns="http://www.w3.org/2000/svg">
<g id="mastercard-solid">
<path id="Shape" fill-rule="evenodd" clip-rule="evenodd" d="M2 0H22C23.1046 0 24 0.89543 24 2V14C24 15.1046 23.1046 16 22 16H2C0.89543 16 0 15.1046 0 14V2C0 0.89543 0.89543 0 2 0ZM11.14 12.73C9.78318 11.5318 9.00423 9.81012 9 8C8.99113 6.18706 9.77242 4.46019 11.14 3.27C8.91047 2.14296 6.19663 2.72585 4.62653 4.66899C3.05643 6.61213 3.05643 9.38787 4.62653 11.331C6.19663 13.2741 8.91047 13.857 11.14 12.73ZM12 3.83C13.2772 4.8369 14.0226 6.3736 14.0226 8C14.0226 9.6264 13.2772 11.1631 12 12.17C10.7193 11.1653 9.97125 9.62779 9.97125 8C9.97125 6.37221 10.7193 4.8347 12 3.83ZM12.89 12.73C13.6309 13.1049 14.4496 13.3002 15.28 13.3V13.27C17.486 13.2904 19.474 11.9422 20.2711 9.88508C21.0681 7.82798 20.5075 5.49227 18.8637 4.02099C17.2198 2.54971 14.8365 2.25058 12.88 3.27C13.1739 3.51902 13.442 3.7971 13.68 4.1C15.7409 6.73277 15.3946 10.5152 12.89 12.73Z" fill="#808080"/>
<g id="mastercard">
<g id="Group" opacity="0.01">
<path id="Shape_2" fill-rule="evenodd" clip-rule="evenodd" d="M2.32007 14.4V1.59998H21.6801V14.4H2.32007ZM4.23704 5.14106C2.76842 7.4463 3.29375 10.4903 5.45007 12.17C7.07283 13.4562 9.29768 13.6752 11.1401 12.73C9.78325 11.5318 9.00429 9.8101 9.00007 7.99998C8.98616 6.19022 9.75992 4.46387 11.1201 3.26998C8.68649 2.02551 5.70566 2.83582 4.23704 5.14106ZM12.0001 12.17C10.7193 11.1653 9.97132 9.62777 9.97132 7.99998C9.97132 6.37218 10.7193 4.83468 12.0001 3.82998C13.2773 4.83688 14.0226 6.37358 14.0226 7.99998C14.0226 9.62637 13.2773 11.1631 12.0001 12.17ZM12.8901 12.73C13.631 13.1049 14.4497 13.3002 15.2801 13.3V13.27C17.4861 13.2904 19.4741 11.9422 20.2711 9.88505C21.0682 7.82795 20.5076 5.49224 18.8637 4.02096C17.2199 2.54968 14.8365 2.25056 12.8801 3.26998C13.174 3.519 13.442 3.79708 13.6801 4.09998C15.7409 6.73274 15.3947 10.5151 12.8901 12.73Z" fill="#808080"/>
</g>
<path id="Shape_3" fill-rule="evenodd" clip-rule="evenodd" d="M20.3002 11.23L20.3602 11.08H20.3002V11.13L20.2787 11.1764L20.2402 11.08H20.1802V11.13L20.2402 11.26L20.2787 11.1764L20.3002 11.23Z" fill="#808080"/>
</g>
</g>
</svg>
