<svg width="24" height="16" viewBox="0 0 24 16" fill="none" xmlns="http://www.w3.org/2000/svg">
<g id="visa-solid">
<path id="Shape" fill-rule="evenodd" clip-rule="evenodd" d="M2 0H22C23.1046 0 24 0.89543 24 2V14C24 15.1046 23.1046 16 22 16H2C0.89543 16 0 15.1046 0 14V2C0 0.89543 0.89543 0 2 0ZM6 6.63L7 10.32H8.28L10.26 5.69H9L7.66 8.84L7.15 6.16C7.10605 5.89004 6.87351 5.69133 6.6 5.69H4.6V5.83C4.98684 5.91736 5.36256 6.04819 5.72 6.22C5.87553 6.3018 5.98041 6.45537 6 6.63ZM9.72 10.32L10.72 5.69H11.92L10.92 10.32H9.72ZM11.74 10.14C12.1641 10.3046 12.615 10.3894 13.07 10.39H13.09C14.35 10.39 15.17 9.77 15.17 8.81C15.176 8.07677 14.5716 7.75893 14.0883 7.5048C13.7674 7.33609 13.5 7.19546 13.5 6.98C13.5 6.81 13.66 6.59 14 6.59C14.3901 6.5699 14.7788 6.64904 15.13 6.82L15.34 5.82C14.9845 5.68895 14.6088 5.62126 14.23 5.62C13.07 5.62 12.23 6.25 12.23 7.15C12.23 7.81 12.81 8.19 13.28 8.41C13.3205 8.42897 13.3587 8.4466 13.3946 8.46319L13.3948 8.4633C13.7748 8.63893 13.9 8.69679 13.9 8.98C13.9 9.29 13.53 9.43 13.19 9.43C12.7618 9.44117 12.3381 9.34126 11.96 9.14L11.74 10.14ZM18.28 10.32L18.13 9.63H16.62L16.37 10.32H15.11L16.91 6C16.9952 5.79366 17.1968 5.65932 17.42 5.66H18.42L19.42 10.29L18.28 10.32ZM18 8.68H17L17.64 6.94L18 8.68Z" fill="#808080"/>
</g>
</svg>
